<svg id="Layer_1" data-name="Layer 1" xmlns="http://www.w3.org/2000/svg" viewBox="0 0 283.46 283.46"><defs><style>.cls-1{fill:#eeb81d;}.cls-2{fill:#231f20;}.cls-3{fill:none;stroke:#231f20;stroke-miterlimit:10;stroke-width:4px;}.cls-4{fill:#fff;}</style></defs><circle class="cls-1" cx="141.73" cy="141.73" r="141.73"/><path class="cls-2" d="M118,67.14c0-.11,0-.22,0-.34,0-.4-.07.36,0,0s.12-.71.19-1.06a20.47,20.47,0,0,1,.63-2.45,19.37,19.37,0,0,1,8.23-10.59,18.16,18.16,0,0,1,4.21-2c2.27-.77,1.3-4.39-1-3.62a23.83,23.83,0,0,0-16.05,20.11A1.89,1.89,0,0,0,116.12,69,1.92,1.92,0,0,0,118,67.14Z" transform="translate(-1.74 -1.74)"/><path class="cls-2" d="M106.33,87.9l10.29-4.19-1.44-.19,4.92,2.3,3.1,1.46a3.31,3.31,0,0,0,2.6.53c1.67-.58,3.27-1.44,4.88-2.15l4.88-2.14h-1.89l8.47,3.73c.35.15.7.32,1.05.46a2.76,2.76,0,0,0,2.38-.21l4.75-2.14,4.11-1.84h-1.89l4.93,2.3,3.1,1.46a3.31,3.31,0,0,0,2.6.53c1.66-.58,3.27-1.44,4.88-2.15l4.88-2.14H171l9.53,4.19a1.94,1.94,0,0,0,2.57-.67,1.9,1.9,0,0,0-.67-2.57l-8.56-3.76c-.32-.14-.64-.3-1-.43a2.83,2.83,0,0,0-2.43.23l-4.8,2.12-4.2,1.84h1.89l-4.92-2.3-3-1.38c-.77-.36-1.65-.94-2.52-.7a34.57,34.57,0,0,0-4.9,2.19l-4.9,2.19h1.9l-8.55-3.76c-.33-.14-.65-.3-1-.43a2.81,2.81,0,0,0-2.42.23l-4.8,2.12-4.2,1.84H126l-8.36-3.91a3,3,0,0,0-2-.47,9.71,9.71,0,0,0-1,.41l-5.16,2.11-4.12,1.67A1.94,1.94,0,0,0,104,86.59a1.88,1.88,0,0,0,2.31,1.31Z" transform="translate(-1.74 -1.74)"/><path class="cls-2" d="M105.94,96.7l10.29-4.2-1.44-.18,4.92,2.3,3.1,1.45a3.27,3.27,0,0,0,2.6.53c1.67-.57,3.27-1.43,4.88-2.14l4.88-2.14h-1.89l8.47,3.73c.35.15.7.32,1.05.46a2.76,2.76,0,0,0,2.38-.22l4.75-2.13L154,92.32h-1.89l4.93,2.3,3.1,1.45a3.27,3.27,0,0,0,2.6.53c1.66-.57,3.27-1.43,4.88-2.14l4.87-2.14h-1.89l9.53,4.19a2,2,0,0,0,2.57-.67,1.9,1.9,0,0,0-.67-2.57l-8.56-3.76c-.32-.15-.64-.31-1-.43a2.81,2.81,0,0,0-2.42.23l-4.8,2.11-4.2,1.85H163L158.08,91l-3-1.38c-.77-.36-1.65-.93-2.52-.69a35.68,35.68,0,0,0-4.9,2.18l-4.9,2.2h1.9l-8.55-3.76c-.33-.15-.65-.31-1-.43a2.81,2.81,0,0,0-2.42.23l-4.81,2.11-4.19,1.85h1.89l-8.36-3.91a2.94,2.94,0,0,0-2-.47,9.71,9.71,0,0,0-1,.41l-5.17,2.11-4.11,1.67a1.93,1.93,0,0,0-1.31,2.31,1.89,1.89,0,0,0,2.31,1.31Z" transform="translate(-1.74 -1.74)"/><rect class="cls-3" x="106.06" y="100.29" width="69.1" height="16.47" rx="8.24"/><path class="cls-3" d="M172.93,73.64H111.76A3.74,3.74,0,0,1,108,69.47a34.57,34.57,0,0,1,68.63,0A3.74,3.74,0,0,1,172.93,73.64Z" transform="translate(-1.74 -1.74)"/><path class="cls-4" d="M76.21,171a9,9,0,0,1-2.08-6.35v-18.8a9,9,0,0,1,2.08-6.35,7.78,7.78,0,0,1,6-2.25,7.82,7.82,0,0,1,6,2.25,9,9,0,0,1,2.07,6.35v3.7h-5.2v-4c0-2.16-.92-3.25-2.75-3.25s-2.75,1.09-2.75,3.25V165c0,2.14.92,3.2,2.75,3.2s2.75-1.06,2.75-3.2v-5.35h5.2v4.95A9,9,0,0,1,88.26,171a7.82,7.82,0,0,1-6,2.25A7.78,7.78,0,0,1,76.21,171Z" transform="translate(-1.74 -1.74)"/><path class="cls-4" d="M96.13,170.94a9.17,9.17,0,0,1-2.15-6.5V146a9.18,9.18,0,0,1,2.15-6.5,8.08,8.08,0,0,1,6.2-2.3,8.08,8.08,0,0,1,6.2,2.3,9.18,9.18,0,0,1,2.15,6.5v18.4a9.17,9.17,0,0,1-2.15,6.5,8,8,0,0,1-6.2,2.3A8,8,0,0,1,96.13,170.94Zm9.05-6.15v-19.1q0-3.45-2.85-3.45t-2.85,3.45v19.1q0,3.45,2.85,3.45T105.18,164.79Z" transform="translate(-1.74 -1.74)"/><path class="cls-4" d="M116.93,171c-1.4-1.52-2.1-3.69-2.1-6.53v-26.7h5.5v27.1a3.78,3.78,0,0,0,.73,2.6,2.62,2.62,0,0,0,2.07.8,2.66,2.66,0,0,0,2.08-.8,3.83,3.83,0,0,0,.72-2.6v-27.1h5.3v26.7c0,2.84-.7,5-2.1,6.53a9.33,9.33,0,0,1-12.2,0Z" transform="translate(-1.74 -1.74)"/><path class="cls-4" d="M135.78,137.74h6.9L148,158.69h.1V137.74H153v35h-5.65l-6.6-25.55h-.1v25.55h-4.9Z" transform="translate(-1.74 -1.74)"/><path class="cls-4" d="M162.08,142.74h-5.75v-5h17v5h-5.75v30h-5.5Z" transform="translate(-1.74 -1.74)"/><path class="cls-4" d="M176.63,137.74h8.15q4.25,0,6.2,2c1.3,1.31,2,3.34,2,6.07v2.15q0,5.46-3.6,6.9v.1a4.3,4.3,0,0,1,2.82,2.45,12.37,12.37,0,0,1,.83,5v6.15a22.75,22.75,0,0,0,.1,2.43,6.11,6.11,0,0,0,.5,1.82H188a8.13,8.13,0,0,1-.4-1.6,23.27,23.27,0,0,1-.1-2.7V162a5.42,5.42,0,0,0-.78-3.35,3.26,3.26,0,0,0-2.67-.95h-1.9v15h-5.5Zm7.5,15a3.28,3.28,0,0,0,2.47-.85,4,4,0,0,0,.83-2.85v-2.7a4.46,4.46,0,0,0-.68-2.75,2.55,2.55,0,0,0-2.12-.85h-2.5v10Z" transform="translate(-1.74 -1.74)"/><path class="cls-4" d="M201.68,157.84,195,137.74h5.85l3.75,12.85h.1l3.75-12.85h5.35l-6.65,20.1v14.9h-5.5Z" transform="translate(-1.74 -1.74)"/><path class="cls-4" d="M84.63,182.86h8.3q4.25,0,6.2,2t2,6.07v1.4a9.65,9.65,0,0,1-.87,4.4,5.14,5.14,0,0,1-2.68,2.45v.1q4.09,1.41,4.1,7.3v3a8.41,8.41,0,0,1-2.12,6.18c-1.42,1.42-3.5,2.12-6.23,2.12H84.63Zm7.65,14.25a3.3,3.3,0,0,0,2.48-.85,4,4,0,0,0,.82-2.85v-1.95a4.47,4.47,0,0,0-.67-2.75,2.58,2.58,0,0,0-2.13-.85H90.13v9.25Zm1,15.75a2.74,2.74,0,0,0,2.15-.77,4,4,0,0,0,.7-2.68v-3a5.06,5.06,0,0,0-.82-3.32,3.49,3.49,0,0,0-2.73-.93H90.13v10.75Z" transform="translate(-1.74 -1.74)"/><path class="cls-4" d="M107.38,216.09c-1.4-1.52-2.1-3.69-2.1-6.53v-26.7h5.5V210a3.78,3.78,0,0,0,.73,2.6,2.62,2.62,0,0,0,2.07.8,2.66,2.66,0,0,0,2.08-.8,3.83,3.83,0,0,0,.72-2.6v-27.1h5.3v26.7c0,2.84-.7,5-2.1,6.53a9.33,9.33,0,0,1-12.2,0Z" transform="translate(-1.74 -1.74)"/><path class="cls-4" d="M126.23,182.86h8.15q4.25,0,6.2,2t1.95,6.07v2.15q0,5.46-3.6,6.9v.1a4.32,4.32,0,0,1,2.83,2.45,12.39,12.39,0,0,1,.82,5v6.15a22.75,22.75,0,0,0,.1,2.43,6,6,0,0,0,.5,1.82h-5.6a8.13,8.13,0,0,1-.4-1.6,23.27,23.27,0,0,1-.1-2.7v-6.4a5.5,5.5,0,0,0-.77-3.35,3.3,3.3,0,0,0-2.68-.95h-1.9v15h-5.5Zm7.5,15a3.3,3.3,0,0,0,2.48-.85,4,4,0,0,0,.82-2.85v-2.7a4.47,4.47,0,0,0-.67-2.75,2.58,2.58,0,0,0-2.13-.85h-2.5v10Z" transform="translate(-1.74 -1.74)"/><path class="cls-4" d="M148.73,216.09c-1.4-1.52-2.1-3.69-2.1-6.53v-18.4a9.28,9.28,0,0,1,2.1-6.52,9.3,9.3,0,0,1,12.2,0,9.28,9.28,0,0,1,2.1,6.52v3h-5.2v-3.35q0-3.45-2.85-3.45t-2.85,3.45V210q0,3.4,2.85,3.4t2.85-3.4v-6.85h-2.75v-5H163v11.45c0,2.84-.7,5-2.1,6.53a9.33,9.33,0,0,1-12.2,0Z" transform="translate(-1.74 -1.74)"/><path class="cls-4" d="M167.23,182.86h15v5h-9.5v9.25h7.55v5h-7.55v10.75h9.5v5h-15Z" transform="translate(-1.74 -1.74)"/><path class="cls-4" d="M186,182.86h8.15q4.24,0,6.2,2t2,6.07v2.15q0,5.46-3.6,6.9v.1a4.3,4.3,0,0,1,2.82,2.45,12.37,12.37,0,0,1,.83,5v6.15a22.75,22.75,0,0,0,.1,2.43,6,6,0,0,0,.5,1.82h-5.6a8.13,8.13,0,0,1-.4-1.6,23.27,23.27,0,0,1-.1-2.7v-6.4a5.42,5.42,0,0,0-.78-3.35,3.26,3.26,0,0,0-2.67-.95h-1.9v15H186Zm7.5,15A3.28,3.28,0,0,0,196,197a4,4,0,0,0,.83-2.85v-2.7a4.46,4.46,0,0,0-.68-2.75,2.55,2.55,0,0,0-2.12-.85h-2.5v10Z" transform="translate(-1.74 -1.74)"/><path class="cls-2" d="M81.16,239.87a5.35,5.35,0,0,1-1.35,3.64A4.42,4.42,0,0,1,76.46,245c-.28,0-1,0-2.28,0l-1.06,0-1.05,0c-.14,0-.21-.05-.21-.16,0-.53,0-1.31.06-2.36s.06-1.84.06-2.36,0-1.37-.06-2.47-.06-1.91-.06-2.45q0-.15.21-.18a16,16,0,0,1,1.66-.06c1.47,0,2.42,0,2.85.07a5.53,5.53,0,0,1,2.66.85,4.35,4.35,0,0,1,1.42,1.81A5.35,5.35,0,0,1,81.16,239.87Zm-2.74,0a2.77,2.77,0,0,0-.72-2,2.53,2.53,0,0,0-1.93-.79c-.73,0-1.1.1-1.1.29s0,.71,0,1.27,0,1,0,1.27,0,.69,0,1.25,0,1,0,1.25.38.31,1.14.31a2.47,2.47,0,0,0,2-.82A3.08,3.08,0,0,0,78.42,239.87Z" transform="translate(-1.74 -1.74)"/><path class="cls-2" d="M90.17,242.71a9.35,9.35,0,0,1-.12,1.13,4.84,4.84,0,0,1-.23,1.06.28.28,0,0,1-.24.14l-.21,0C89,245,88,245,86.32,245H83.06c-.16,0-.24-.07-.24-.2,0-.54,0-1.34.09-2.41s.09-1.87.09-2.4,0-1.56-.09-3c0-.38,0-.95-.07-1.71v-.1c0-.11,0-.16.18-.16l1.59,0c.7,0,1.23,0,1.59,0s.87,0,1.57,0l1.57,0c.25,0,.39.09.43.28s.06.44.11,1,.08.89.08,1a.13.13,0,0,1-.15.15h-.15c-1.26-.11-2.4-.16-3.41-.16-.26,0-.41.06-.47.18a2.67,2.67,0,0,0,0,.55,1,1,0,0,0,.14.64.62.62,0,0,0,.46.14H87c.6,0,1.2,0,1.82,0l.39,0,.39,0a.15.15,0,0,1,.17.17c0-.1,0,.26-.13,1.09a10.88,10.88,0,0,0-.06,1.14c0,.1-.07.15-.2.15L88.7,241c-.27,0-.89,0-1.86,0h-.75c-.2,0-.31.05-.35.14v.45a2.08,2.08,0,0,0,.07.7c.08.18.38.29.91.32h1c.25,0,.62,0,1.12-.07s.87-.07,1.12-.07C90.11,242.45,90.17,242.54,90.17,242.71Z" transform="translate(-1.74 -1.74)"/><path class="cls-2" d="M102.91,237.09a.14.14,0,0,1-.16.15l-2.15-.11c0,1.2,0,2.05,0,2.52s0,1.41.06,2.54.07,2,.07,2.54a.19.19,0,0,1-.06.17l-.2,0a9.91,9.91,0,0,1-1.26.06,9.3,9.3,0,0,1-1.29-.06.2.2,0,0,1-.2-.22c0-.56,0-1.4.07-2.53s.07-2,.07-2.53c0-.37,0-1.2-.06-2.48-1,.09-1.71.14-2.28.14-.07,0-.11,0-.11-.07a3.38,3.38,0,0,1,.1-.55c.07-.34.12-.54.13-.61,0-.22,0-.45.05-.67s.09-.54.17-.54h.1a28.78,28.78,0,0,0,3.42.15c.43,0,1.22-.05,2.37-.14l.94-.07a.38.38,0,0,1,.16,0s0,.06,0,.14,0,.31,0,.53,0,.44,0,.54a4.93,4.93,0,0,0,0,.53A4.67,4.67,0,0,1,102.91,237.09Z" transform="translate(-1.74 -1.74)"/><path class="cls-2" d="M113.68,244.75q0,.13-.18.18a7.75,7.75,0,0,1-1.33.06,8.49,8.49,0,0,1-1.31-.06.38.38,0,0,1-.31-.32,2.76,2.76,0,0,0-.38-1.1,16.44,16.44,0,0,0-1.91,0,6.19,6.19,0,0,0-1.3.06,2.09,2.09,0,0,0-.27.77c-.09.39-.2.61-.33.64a11.3,11.3,0,0,1-1.62.06c-.73,0-1.1-.07-1.1-.21s.54-1.64,1.62-4.56c1.16-3.16,1.8-4.9,1.9-5.21s.12-.27.2-.27l.59,0a5.67,5.67,0,0,0,.61,0l.57,0,.56,0c.09,0,.17.08.25.23q.34.75,2,5.15T113.68,244.75Zm-5.06-6.51c-.1.21-.27.67-.51,1.37a7.22,7.22,0,0,0-.39,1.31c0,.08.15.13.43.14h.73c.31,0,.49,0,.52-.11a.25.25,0,0,0,0-.1,6.88,6.88,0,0,0-.33-1.3A11.09,11.09,0,0,0,108.62,238.24Z" transform="translate(-1.74 -1.74)"/><path class="cls-2" d="M121.56,245.05l-1.6,0-1.6,0-2.13,0a8.27,8.27,0,0,1-.93,0,.21.21,0,0,1-.2-.22c0-.52,0-1.3,0-2.33s0-1.82,0-2.33,0-1.39-.05-2.49,0-1.93,0-2.48c0-.11.07-.16.21-.16l.64,0c.28,0,.49,0,.63,0s.39,0,.7,0l.7,0c.07,0,.11.05.1.14v.09c-.06.9-.13,2.24-.2,4v3.22l0,.17a.11.11,0,0,0,.1.11h.19c.43,0,1.07,0,1.93-.07s1.49-.06,1.92-.06c.13,0,.19,0,.19.16a10.85,10.85,0,0,1-.17,2.11c0,.12-.08.2-.15.22Z" transform="translate(-1.74 -1.74)"/><path class="cls-2" d="M130.15,245.05l-1.6,0-1.6,0-2.14,0a8.16,8.16,0,0,1-.92,0,.21.21,0,0,1-.21-.22c0-.52,0-1.3,0-2.33s0-1.82,0-2.33,0-1.39,0-2.49-.05-1.93-.05-2.48c0-.11.08-.16.22-.16l.64,0c.28,0,.49,0,.63,0s.39,0,.7,0l.7,0c.07,0,.11.05.1.14v.09c0,.9-.12,2.24-.19,4v1.89c0,.61,0,1.05,0,1.33l0,.17a.11.11,0,0,0,.1.11h.19c.43,0,1.07,0,1.92-.07s1.5-.06,1.93-.06c.13,0,.19,0,.19.16a10.78,10.78,0,0,1-.18,2.11c0,.12-.07.2-.15.22Z" transform="translate(-1.74 -1.74)"/><path class="cls-2" d="M141.6,244.75q0,.13-.18.18a7.83,7.83,0,0,1-1.33.06,8.49,8.49,0,0,1-1.31-.06.37.37,0,0,1-.31-.32,2.76,2.76,0,0,0-.38-1.1,16.84,16.84,0,0,0-1.92,0,6,6,0,0,0-1.29.06,2.09,2.09,0,0,0-.27.77c-.09.39-.2.61-.33.64a11.38,11.38,0,0,1-1.63.06c-.73,0-1.09-.07-1.09-.21s.54-1.64,1.61-4.56q1.76-4.74,1.9-5.21c.06-.18.13-.27.2-.27l.6,0a5.67,5.67,0,0,0,.6,0l.57,0,.56,0c.09,0,.18.08.25.23q.36.75,2.05,5.15T141.6,244.75Zm-5.07-6.51c-.1.21-.27.67-.51,1.37a7.71,7.71,0,0,0-.38,1.31c0,.08.14.13.43.14h.73c.31,0,.48,0,.52-.11a.28.28,0,0,0,0-.1,6.88,6.88,0,0,0-.33-1.3A9.47,9.47,0,0,0,136.53,238.24Z" transform="translate(-1.74 -1.74)"/><path class="cls-2" d="M157.81,244.71c0,.15-.07.22-.21.22h-2.53c-.13,0-.2-.08-.2-.25,0-.48,0-1.2,0-2.16s.05-1.69.05-2.17c0-.14,0-.21-.06-.22a22.71,22.71,0,0,0-1,2.21c-.34.85-.68,1.69-1,2.54,0,.11-.1.17-.18.19h-.28q-.37,0-.45-.15c-.25-.52-.59-1.28-1-2.28s-.78-1.83-1-2.3l-.06-.08a.33.33,0,0,0-.05.21q0,.71,0,2.1c0,.94,0,1.64,0,2.1,0,.17-.07.25-.2.25h-2.39c-.09,0-.15,0-.17,0a.32.32,0,0,1,0-.16c0-.52,0-1.3.07-2.34s.08-1.83.08-2.34,0-1.59-.08-3.11q0-.6-.06-1.77v-.12c0-.09.1-.14.3-.14l1.18,0,1.18,0c.05,0,.13.1.22.3l2.09,4.58c.15.31.27.46.37.46s.17-.18.34-.53q.72-1.5,2.13-4.53c.08-.18.17-.28.27-.28l.62,0,.64,0a4.65,4.65,0,0,0,.54,0l.55,0c.14,0,.21,0,.21.17q0,.84-.06,2.52t-.06,2.52c0,.51,0,1.29.07,2.33S157.81,244.2,157.81,244.71Z" transform="translate(-1.74 -1.74)"/><path class="cls-2" d="M168.26,241.42a4.92,4.92,0,0,1-.44,2.49c-.53.81-1.86,1.22-4,1.22a8.43,8.43,0,0,1-2.23-.23,2.23,2.23,0,0,1-1.61-1.36,5.47,5.47,0,0,1-.19-1.76c0-.19,0-.48,0-.87s0-.67,0-.86c0-.56,0-1.39-.08-2.49s-.08-1.93-.08-2.48c0-.12.05-.17.15-.17l1.32,0c.59,0,1,0,1.32,0,.11,0,.17.05.17.16,0,.62,0,1.57-.06,2.82s-.06,2.2-.06,2.83a3.2,3.2,0,0,0,.24,1.51,1.4,1.4,0,0,0,1.31.54,1.28,1.28,0,0,0,1.47-1.42c0-.69,0-1.73-.05-3.11s-.05-2.42-.05-3.11c0-.15.06-.22.18-.22.28,0,.7,0,1.27,0l1.27,0c.14,0,.21.05.21.17,0,.55,0,1.37-.07,2.48s-.07,1.93-.07,2.49c0,.15,0,.38,0,.68S168.26,241.27,168.26,241.42Z" transform="translate(-1.74 -1.74)"/><path class="cls-2" d="M179.81,235.13c0,.54,0,1.36-.07,2.45s-.07,1.9-.07,2.45v4.71c0,.13-.06.19-.2.19l-.52,0h-.52l-.56,0-.55,0c-.09,0-.19-.07-.31-.23-.34-.46-1.12-1.49-2.32-3.07-.32-.45-.83-1.1-1.5-2a.3.3,0,0,0-.1-.09.21.21,0,0,0-.06.16c0,.55,0,1.38.05,2.49s0,1.93,0,2.48c0,.17-.06.25-.19.25h-2.47c-.14,0-.21-.07-.21-.22,0-.51,0-1.29.07-2.33s.08-1.82.08-2.33,0-1.37-.07-2.46-.07-1.91-.07-2.45c0-.11.1-.16.28-.16s.62,0,1-.06l.57-.09a3.82,3.82,0,0,1,.56-.07c.06,0,.15.09.27.25l2.66,3.65,1.08,1.44c.12.15.22.22.31.22s.09-.18.09-.55,0-1.26-.08-2.26-.08-1.76-.08-2.27c0-.17.05-.26.15-.26.28,0,.71,0,1.29,0l1.29,0C179.76,234.91,179.81,235,179.81,235.13Z" transform="translate(-1.74 -1.74)"/><path class="cls-2" d="M191.05,239.87a5.35,5.35,0,0,1-1.35,3.64,4.41,4.41,0,0,1-3.35,1.45c-.28,0-1,0-2.28,0L183,245l-1,0c-.14,0-.21-.05-.21-.16,0-.53,0-1.31.06-2.36s.06-1.84.06-2.36,0-1.37-.06-2.47-.06-1.91-.06-2.45q0-.15.21-.18a16.06,16.06,0,0,1,1.67-.06c1.46,0,2.41,0,2.85.07a5.49,5.49,0,0,1,2.65.85,4.35,4.35,0,0,1,1.42,1.81A5.35,5.35,0,0,1,191.05,239.87Zm-2.74,0a2.77,2.77,0,0,0-.72-2,2.52,2.52,0,0,0-1.93-.79c-.73,0-1.1.1-1.1.29s0,.71,0,1.27,0,1,0,1.27,0,.69,0,1.25,0,1,0,1.25.38.31,1.14.31a2.46,2.46,0,0,0,2-.82A3.08,3.08,0,0,0,188.31,239.87Z" transform="translate(-1.74 -1.74)"/><path class="cls-2" d="M195.64,239.65c0,.56,0,1.41.05,2.54s0,2,0,2.54c0,.09,0,.15-.07.17l-.18,0a10.1,10.1,0,0,1-1.24.06,8.63,8.63,0,0,1-1.33-.06c-.14,0-.21-.1-.21-.22q0,.12.06-1.26c.09-1.93.13-3.19.13-3.8s0-1.27,0-2.29-.05-1.79-.05-2.3c0-.1.06-.15.17-.15s.37,0,.66,0l.67,0,.66,0c.28,0,.5,0,.65,0s.21.05.21.15c0,.51,0,1.28-.08,2.3S195.64,239.14,195.64,239.65Z" transform="translate(-1.74 -1.74)"/><path class="cls-2" d="M207.11,244.75q0,.13-.18.18a7.75,7.75,0,0,1-1.33.06,8.49,8.49,0,0,1-1.31-.06.38.38,0,0,1-.31-.32,2.76,2.76,0,0,0-.38-1.1,16.44,16.44,0,0,0-1.91,0,6.19,6.19,0,0,0-1.3.06,2.09,2.09,0,0,0-.27.77c-.09.39-.2.61-.33.64a11.3,11.3,0,0,1-1.62.06c-.73,0-1.1-.07-1.1-.21s.54-1.64,1.62-4.56c1.16-3.16,1.8-4.9,1.9-5.21s.12-.27.2-.27l.59,0a5.67,5.67,0,0,0,.61,0l.57,0,.56,0c.09,0,.17.08.25.23q.34.75,2,5.15T207.11,244.75Zm-5.06-6.51c-.1.21-.27.67-.51,1.37a7.22,7.22,0,0,0-.39,1.31c0,.08.15.13.43.14h.73c.31,0,.49,0,.52-.11a.25.25,0,0,0,0-.1,6.88,6.88,0,0,0-.33-1.3A11.09,11.09,0,0,0,202.05,238.24Z" transform="translate(-1.74 -1.74)"/><path class="cls-2" d="M215,245.05l-1.6,0-1.6,0-2.13,0a8.27,8.27,0,0,1-.93,0,.21.21,0,0,1-.2-.22c0-.52,0-1.3,0-2.33s0-1.82,0-2.33,0-1.39-.05-2.49-.05-1.93-.05-2.48c0-.11.07-.16.21-.16l.64,0c.28,0,.49,0,.63,0s.39,0,.7,0l.7,0c.07,0,.11.05.1.14v.09c-.06.9-.13,2.24-.2,4v3.22l0,.17a.11.11,0,0,0,.1.11h.19c.43,0,1.07,0,1.93-.07s1.49-.06,1.92-.06c.13,0,.19,0,.19.16a11.69,11.69,0,0,1-.17,2.11c0,.12-.08.2-.15.22Z" transform="translate(-1.74 -1.74)"/></svg>