<svg id="Capa_1" data-name="Capa 1" xmlns="http://www.w3.org/2000/svg" viewBox="0 0 497.23 105.84"><defs><style>.cls-1{fill:#fff;}</style></defs><path class="cls-1" d="M26.56,66.39,40.33,68v.7a53,53,0,0,1-.51,8.2,8.78,8.78,0,0,1-2.17,4.86,8.83,8.83,0,0,1-4.81,2.33,45.67,45.67,0,0,1-8.4.61H21.91c-.68,0-1.39,0-2.13-.1l1.82,1.82Q16,86,13.66,84.05t-2.89-7L8.64,75.4c-.06-.75-.1-1.62-.1-2.64a23.72,23.72,0,0,0-.2-3l1.42-.91V64.87l4.76.4.5-.2-5.47-.61V53.33l-1.31-.41V19.62a61,61,0,0,1,.45-8.3,8.87,8.87,0,0,1,2.13-4.91,8.41,8.41,0,0,1,4.81-2.33A50.26,50.26,0,0,1,24,3.52a51,51,0,0,1,8.5.56,8.82,8.82,0,0,1,4.86,2.28,8.59,8.59,0,0,1,2.23,4.86,54.71,54.71,0,0,1,.51,8.4v12H26.36V17.59a5,5,0,0,0-.46-2.43c-.3-.54-1-.81-2-.81a1.63,1.63,0,0,0-1.62.81,5.65,5.65,0,0,0-.4,2.43V56l1.31.4V60l-.51.61v5.77l-.7-.21v4.46c0,2.36.77,3.54,2.32,3.54a1.76,1.76,0,0,0,1.83-1,6.78,6.78,0,0,0,.4-2.58ZM40.73,67.6,27.07,65.78v-8.4l-.71.4v-7H35l1.62-1.22h4.15v18Z" transform="translate(-8.24 -1.64)"/><path class="cls-1" d="M60.47,73,47.52,79.65a22.72,22.72,0,0,1-.76-4.2,55.48,55.48,0,0,1-.26-5.62V51.4l11.14.81-.1-.3L46.81,51.2V19.92c0-.61,0-1.21,0-1.82s0-1.22,0-1.82l-1.82-.51a27,27,0,0,1,.7-4.86l1.12,4.66v-.3l2.23.5.7,2.43L60,20.93V54h-.31v2.53L60.37,59V71.75A5.11,5.11,0,0,0,60.47,73ZM71.56,4.59a8.89,8.89,0,0,1,4.86,2.22,8.65,8.65,0,0,1,2.17,4.86A55,55,0,0,1,79.1,20v4.15L65.23,20.23v-2a6.31,6.31,0,0,0-.4-2.58c-.27-.57-.88-.86-1.83-.86a1.73,1.73,0,0,0-1.67.86,5.73,5.73,0,0,0-.45,2.58V19L49.44,15.77l-1.52-5.36a9.16,9.16,0,0,1,1.67-3.29,6.56,6.56,0,0,1,2.84-1.93,17.57,17.57,0,0,1,4.4-.91C58.58,4.11,60.68,4,63.11,4A51.35,51.35,0,0,1,71.56,4.59Zm5.82,59.27.81-.41v6a61.33,61.33,0,0,1-.36,7.29,12.29,12.29,0,0,1-1.41,4.76,6.89,6.89,0,0,1-3.14,2.78,16.31,16.31,0,0,1-5.42,1.27l.1.2a12.45,12.45,0,0,1-2.32.2H63.11c-2.43,0-4.53-.08-6.28-.25a16.19,16.19,0,0,1-4.4-1,6.92,6.92,0,0,1-2.84-2,9.21,9.21,0,0,1-1.67-3.18l12.76-6.79c.27,1.56,1.07,2.33,2.43,2.33a2.15,2.15,0,0,0,1.21-.4l-.3-1c.06-.2.13-.4.2-.6a2.58,2.58,0,0,0,.1-.81l-.81.4V54.74l13.87,1.12Zm-13-43.53,13.87,3.84V53.73L64.42,52.62Z" transform="translate(-8.24 -1.64)"/><path class="cls-1" d="M118.27,47.76V69.12q0,3.64-.25,6.28a17,17,0,0,1-1,4.45L105.92,79,104.3,51.2l-1.41.1,1.52,26.83L84.67,76.61a29.5,29.5,0,0,1-.41-3.8c-.07-1.38-.1-2.91-.1-4.6V52.11l1.52-.2V5.65l14,3.74V52.11l-1.32.31V70.13a7.07,7.07,0,0,0,.41,2.68,2,2,0,0,0,3.44,0,7.1,7.1,0,0,0,.4-2.68V10.41l9.11,2.43,5,3V48.06ZM99.34,7.37l-14-3.75v-.2h14Zm15.9,73.29a6.43,6.43,0,0,1-2.94,3.74A16.86,16.86,0,0,1,106.43,86v.41a20.57,20.57,0,0,1-2.13.1h-2.12a68.24,68.24,0,0,1-6.93-.3A13.89,13.89,0,0,1,90.54,85a6.92,6.92,0,0,1-2.84-2.53,11,11,0,0,1-1.41-4.15l17.81,1.42Zm-3.75-69.44-9.11-5.88V3.83h14.17v8.6Zm-9-4.86,9.11,5.77L102.48,9.7Zm9.82,5.16,4.86,1.32v1.82Z" transform="translate(-8.24 -1.64)"/><path class="cls-1" d="M124.35,82.94l12.25-5.17.1,8.41H124.35ZM145.71,3.78h12V85.57h-3.24l.41.61h-8.4l-2-10.84,3.85-1.51-.51-1L155,69.88l-.3-.51-6.08,2.43-8.2-18.12-1.82-10.32-.5-.71h-.31l.1,5.36-7.69-16.8-5.77-9.11V3.88H137.1l6.08,32.29.6.3,1.52,8.1h.51V37.08Zm-16.2,27.63,8,17.31.2,28.14L125.46,82V31.82l-.71-.21V23.92l3.34,6.88Zm9.72,22.78,8.2,18.12-4.56,2Z" transform="translate(-8.24 -1.64)"/><path class="cls-1" d="M162.51,2.13h27.94v11h-7V57.81l-1.51.3v15l-4.76-.4-9.31-3.14V58.41l1.51-.3V13.16h-6.88Zm20,71.77v.91l.1.21v8.8H168.58V73.29h-.3V71l6.48,2.12,3.14.2.81.31Z" transform="translate(-8.24 -1.64)"/><path class="cls-1" d="M192.92,86.26V70.15h-.45V50.52l15.22,13v6.94H208v1.66h.11v11.8Zm21.5-11.8V72.58l-1.76-.11v-5l5.51,4.85,2,.11-5.63-4.63V60.67a5.21,5.21,0,0,0-.77-3.2,3.3,3.3,0,0,0-2.76-1,1.46,1.46,0,0,0-.6.11,1.74,1.74,0,0,1-.61.11v6.73L194.57,50.3V41.48h-.11V36.4l2.76-1-2.76-.88-1.77.77V33.2l1.77.55V4.64H213.1a41.37,41.37,0,0,1,7.39.55,12.21,12.21,0,0,1,4.85,1.87,7.74,7.74,0,0,1,2.76,3.53A20.17,20.17,0,0,1,229.31,16l-1,.88a8.05,8.05,0,0,1,.22,2v2.43L215,26.48l-.45.44v-.33l-1.21.66V25l1.21-.88v-2.1a13.31,13.31,0,0,0-.49-4.41c-.33-.81-1.46-1.21-3.37-1.21h-1v14l-.11.22v8l-8.82-3,4.19-3-4.75,1.66-.44.44-.11-.22-2.09.77,3.2,1.21.22-.22,8.82,3.09v3.86a4.76,4.76,0,0,1,.72.06,6.07,6.07,0,0,0,.71.05,3.46,3.46,0,0,0,2.27-.61,3,3,0,0,0,.93-1.82l13.46,4.42a9.22,9.22,0,0,1-5,4.19c2.79,1.17,4.63,2.83,5.51,5a23.38,23.38,0,0,1,1.32,8.71V74l-7.83-.66H222l7.72.77v5.74l-1.43-.44-.44-.33v1.76l-15,2.65V74ZM193.8,87.14l15.33-2.32v7.72H193.8Zm36.62-65V33.53a54.3,54.3,0,0,1-.33,6.46,11.51,11.51,0,0,1-1.55,4.68L215,40.26a6.69,6.69,0,0,0,.22-2.09V27.91Zm-15.22,61,15.22-2.65V91.77H215.2Z" transform="translate(-8.24 -1.64)"/><path class="cls-1" d="M244.73,4.77l.93,9L231.51,16l-2.7-13h1.06Zm7.72,9,14.86-2.34-4.92,26.32.47.12-.11,1.64-2.35,5.85-1.28,6.55-1.41.47-.23.23-15.8,4.68-5.61-27.61-.82-.35-2.57-12L247,14.83l2.22,18.37.59.12.7,6.32.59-4.92-.82-.11Zm-6,74.06,2,2.22L258.88,88V100h-1.52l-5.5-5.85-2.22-2.22-8.89,1.28v-.7l-.47.94V90.18l1.4-.35.47-1.29v-.11h.24v-2l-2.69-2.69V81.29l2.69.7v-.7l.7,1,1.17.12-.12.58.94,1.17,1.52-3.86,12.17,3.16v2.11l-11,2-2.69-2.81-.94,2.57.59.71ZM256.54,83l-12.16-3.15.23-.24-2.93-.82V66.31h-.11V61.87l-.47-2.11,14.16-4.33.23-.47L258.3,54l-1.4,7.72V64h-.36ZM241.1,94.74l9.48-1.4,5.73,6H241.1ZM267.66,7.93l.7.12-.47,3.16-15,2.34L253.74,7l-.94-.23.35-2.46h15.09Z" transform="translate(-8.24 -1.64)"/><path class="cls-1" d="M318.91,76.13v8.29a73.82,73.82,0,0,1-.45,8.78,15.36,15.36,0,0,1-1.85,6.06,9.56,9.56,0,0,1-4.07,3.69,19.92,19.92,0,0,1-7.14,1.72l-3-28.41-1.66-.13v.64h-.38v-.64l-.64-.25-.25-2.68V63.91c0-2-.39-3.32-1.15-3.83l-.26-.51a3.32,3.32,0,0,0-1.14-.12,5,5,0,0,0-.77.06,4.77,4.77,0,0,1-.76.06V75.24l-17.58-1.91V48L298.4,53.2v.39l4.07,1.14L316.61,67v8.79ZM298.65,48.36l-20.51-17.2V3.78h15.29l.13,1.27h6.11a40.76,40.76,0,0,1,9.3.89,12.44,12.44,0,0,1,5.86,3,11.7,11.7,0,0,1,3.06,5.61,36.36,36.36,0,0,1,.89,8.73v13c0,4.25-.6,7.56-1.78,9.94a11.37,11.37,0,0,1-5.86,5.35,12.64,12.64,0,0,1,3.75,2.74,18.43,18.43,0,0,1,2.49,3.37l-13.25-3.18-.89-1.15-3.95-.76-.13-2.68-.38-.25Zm.26,3.31-20.77-5.22V31.16l20.26,17.2Zm2.8,25.1L305.15,107a28.7,28.7,0,0,1-3.19.39c-1.19.08-2.37.12-3.56.12H278.65V74l17.45,1.91V94.22a8.38,8.38,0,0,0,1.66.13,3,3,0,0,0,2.68-1.15,6.91,6.91,0,0,0,.76-3.69V76.39ZM298,43.27l.26,1.4a3.29,3.29,0,0,0,2.23-1.21,5.37,5.37,0,0,0,.7-3.12V22.5a5,5,0,0,0-.76-3.25,3.35,3.35,0,0,0-2.55-.82h-2V43.27H298Zm18.48,15.28a12,12,0,0,1,1.14,4,42.94,42.94,0,0,1,.26,5l-14.4-12.23Z" transform="translate(-8.24 -1.64)"/><path class="cls-1" d="M361.36,54.58V79.22c0,2.8-.09,5.22-.29,7.24A19.08,19.08,0,0,1,360,91.6l-12.84-.94-1.87-32.11-1.64.11,1.75,31-22.77-1.75a36.09,36.09,0,0,1-.47-4.38c-.08-1.59-.11-3.37-.11-5.31V59.6l1.75-.24V6l16.11,4.32V59.6l-1.51.35V80.39a8.24,8.24,0,0,0,.46,3.09,2.33,2.33,0,0,0,4,0,8.22,8.22,0,0,0,.47-3.09V11.48l10.51,2.8,5.73,3.51V54.93ZM339.52,8,323.41,3.65V3.42h16.11Zm18.34,84.55a7.4,7.4,0,0,1-3.39,4.32,19.73,19.73,0,0,1-6.77,1.87v.47a24.07,24.07,0,0,1-2.45.12h-2.46a79.06,79.06,0,0,1-8-.35,15.93,15.93,0,0,1-5.43-1.41,8,8,0,0,1-3.27-2.91,12.85,12.85,0,0,1-1.63-4.79L345,91.48Zm-4.32-80.12L343,5.64V3.89h16.35v9.93Zm-10.4-5.6,10.52,6.66-10.52-2.81Zm11.33,6,5.61,1.52v2.11Z" transform="translate(-8.24 -1.64)"/><path class="cls-1" d="M363.55,76.55V61.77h-.41v-18l14,11.94v6.38h.31v1.52h.1V74.42Zm19.74-10.84V64l-1.62-.1V59.34l5.06,4.45,1.82.1-5.16-4.25V53.06a4.85,4.85,0,0,0-.71-2.94,3.06,3.06,0,0,0-2.53-.91,1.47,1.47,0,0,0-.56.11,1.63,1.63,0,0,1-.55.1v6.17l-14-12.05V35.45H365V30.79l2.54-.91L365,29.07l-1.61.71V27.85l1.61.51V1.64h17.11a39.05,39.05,0,0,1,6.79.5,11.23,11.23,0,0,1,4.45,1.72,7.08,7.08,0,0,1,2.53,3.24,18.59,18.59,0,0,1,1.11,5l-.91.81a7.28,7.28,0,0,1,.21,1.82v2.23l-12.46,4.76-.4.4v-.3l-1.11.61v-2l1.11-.81V17.63a11.93,11.93,0,0,0-.46-4c-.3-.74-1.33-1.11-3.08-1.11h-.92V25.32l-.1.21v7.39l-8.09-2.74,3.84-2.73L370.23,29l-.41.4-.1-.2-1.92.71L370.74,31l.2-.2,8.1,2.83v3.55a3.77,3.77,0,0,1,.65,0,5.42,5.42,0,0,0,.66.05,3.19,3.19,0,0,0,2.08-.56,2.76,2.76,0,0,0,.86-1.67l12.35,4.05a8.46,8.46,0,0,1-4.56,3.85,8.76,8.76,0,0,1,5.06,4.55,21.44,21.44,0,0,1,1.22,8v9.82l-7.19-.61h.1l7.09.71v5.26l-1.32-.4-.4-.3v1.62L381.87,74V65.31ZM364.36,77.36l14.07-2.13v7.09H364.36ZM398,17.73V28.16a50,50,0,0,1-.31,5.92,10.6,10.6,0,0,1-1.41,4.3l-12.46-4.05a5.73,5.73,0,0,0,.21-1.92V23Zm-14,56,14-2.43V81.61H384Z" transform="translate(-8.24 -1.64)"/><path class="cls-1" d="M438.05,53.48l-1.62,1.31V86.18h-6l-2.33-4.86A13,13,0,0,1,424,85.16l-1.11-.5a20.51,20.51,0,0,1-6.48.91H416l-11.23-7.09a5.34,5.34,0,0,1-.31-1c-.06-.34-.13-.67-.2-1l-.71.5a4.87,4.87,0,0,1-.1-1,2.84,2.84,0,0,0-.2-1l1.82.81.1-.3-1.52-.71a9.08,9.08,0,0,1-.1-1.32V54.19l1.52-.81V19.87a56,56,0,0,1,.51-8.4,9.22,9.22,0,0,1,2.22-5.06,9.14,9.14,0,0,1,5-2.48,46.93,46.93,0,0,1,8.85-.66,44.87,44.87,0,0,1,8.61.66,9.09,9.09,0,0,1,5,2.48,9.3,9.3,0,0,1,2.23,5.06,57.56,57.56,0,0,1,.5,8.4V32.22H423.78V17.85a6.28,6.28,0,0,0-.41-2.58q-.4-.87-1.92-.87t-1.92.87a6.28,6.28,0,0,0-.41,2.58V47.71l-1.52.71V66.84l-11.43,8.3.4.31,10.93-8v4.86a4.59,4.59,0,0,0,.51,2.48,2.17,2.17,0,0,0,1.92.76c.95,0,1.55-.27,1.82-.81a5.63,5.63,0,0,0,.41-2.43V64L424,62.79v-8.7h-2.23v-7.9l.61-.2,15.69,5.47ZM408.7,84.86a8.94,8.94,0,0,1-3.65-5.26l11.24,7.08C413,86.61,410.45,86,408.7,84.86Zm10.73-39.78.5.3-.5.3Zm5.87-1.52,1.82-1h10.43v8.2L423,45.68l-1.11.51-.51-.2V43.56Z" transform="translate(-8.24 -1.64)"/><path class="cls-1" d="M457.69,36h.71l7.79,3.64V46.8h-8.5V75.85h8.5v6.78l-.6-.1v3.24H448.88l.21.2h-5.37V84.76l-.81-.3V79.19h.71V28.88l14.07,6.78Zm7.9-23.08,2.12.7v1h-8.4v12l-.3-.3v7.9l-14.28-6.79V16.53l.31.3V6.41l-1.93-.61V4h22.48Zm.1,22.67v3.65l-7.9-3.65Z" transform="translate(-8.24 -1.64)"/><path class="cls-1" d="M471.05,79.55V64.77h-.4v-18l14,11.94v6.38h.3v1.52h.1V77.42Zm19.74-10.84V67l-1.62-.1V62.34l5.06,4.45,1.83.1-5.17-4.25V56.06a4.78,4.78,0,0,0-.71-2.94,3,3,0,0,0-2.53-.91,1.42,1.42,0,0,0-.55.11,1.69,1.69,0,0,1-.56.1v6.17l-14-12.05V38.45h-.1V33.79l2.53-.91-2.53-.81-1.62.71V30.85l1.62.51V4.64h17.11a38.85,38.85,0,0,1,6.78.5,11.17,11.17,0,0,1,4.45,1.72,7.08,7.08,0,0,1,2.53,3.24,18.57,18.57,0,0,1,1.12,5l-.91.81a7.8,7.8,0,0,1,.2,1.82v2.23L491.3,24.68l-.41.4v-.3l-1.11.61v-2l1.11-.81V20.63a12.27,12.27,0,0,0-.45-4.05q-.46-1.11-3.09-1.11h-.91V28.32l-.1.21v7.39l-8.1-2.74,3.85-2.73L477.73,32l-.4.4-.1-.2-1.93.71L478.24,34l.2-.2,8.1,2.83v3.55a4,4,0,0,1,.66,0,5.14,5.14,0,0,0,.66.05,3.18,3.18,0,0,0,2.07-.56,2.71,2.71,0,0,0,.86-1.67l12.35,4.05a8.44,8.44,0,0,1-4.55,3.85,8.79,8.79,0,0,1,5.06,4.55,21.46,21.46,0,0,1,1.21,8v9.82l-7.18-.61h.1l7.08.71v5.26l-1.31-.4-.41-.3v1.62L489.38,77V68.31ZM471.86,80.36l14.07-2.13v7.09H471.86Zm33.61-59.63V31.16a50.18,50.18,0,0,1-.3,5.92,10.76,10.76,0,0,1-1.42,4.3L491.3,37.33a6.11,6.11,0,0,0,.2-1.92V26Zm-14,56,14-2.43V84.61h-14Z" transform="translate(-8.24 -1.64)"/></svg>